<?xml version="1.0" encoding="UTF-8" standalone="no"?>
<!DOCTYPE svg PUBLIC "-//W3C//DTD SVG 1.1//EN" "http://www.w3.org/Graphics/SVG/1.1/DTD/svg11.dtd">
<svg width="100%" height="100%" viewBox="0 0 1000 1000" version="1.1" xmlns="http://www.w3.org/2000/svg" xmlns:xlink="http://www.w3.org/1999/xlink" xml:space="preserve" style="fill-rule:evenodd;clip-rule:evenodd;stroke-linejoin:round;stroke-miterlimit:1.41421;">
    <g>
        <g>
            <path d="M10,500C10,770.7 229.4,990 500,990C770.6,990 990,770.7 990,500C990,229.4 770.6,10 500,10C229.4,10 10,229.4 10,500ZM913.4,500C913.4,728.4 728.3,913.4 500,913.4C271.7,913.4 86.6,728.4 86.6,500C86.6,271.7 271.7,86.6 500,86.6C728.3,86.6 913.4,271.7 913.4,500Z" style="fill:white;fill-rule:nonzero;"/>
            <path d="M316.3,530.6L500,745L683.8,530.6L591.8,530.6L591.8,255L408.1,255L408.1,530.6L316.3,530.6Z" style="fill:white;fill-rule:nonzero;"/>
        </g>
    </g>
</svg>
