<?xml version="1.0" encoding="UTF-8" standalone="no"?>
<!DOCTYPE svg PUBLIC "-//W3C//DTD SVG 1.1//EN" "http://www.w3.org/Graphics/SVG/1.1/DTD/svg11.dtd">
<svg width="100%" height="100%" viewBox="0 0 1000 1000" version="1.1" xmlns="http://www.w3.org/2000/svg" xmlns:xlink="http://www.w3.org/1999/xlink" xml:space="preserve" style="fill-rule:evenodd;clip-rule:evenodd;stroke-linejoin:round;stroke-miterlimit:1.41421;">
    <g>
        <path d="M500,10C229.4,10 10,229.4 10,500C10,770.6 229.4,990 500,990C770.6,990 990,770.6 990,500C990,229.4 770.6,10 500,10ZM500,957.3C247.8,957.3 42.7,752.2 42.7,500C42.7,247.8 247.8,42.7 500,42.7C752.2,42.7 957.3,247.8 957.3,500C957.3,752.2 752.2,957.3 500,957.3Z" style="fill:white;fill-rule:nonzero;"/>
        <rect x="287.7" y="328.5" width="424.7" height="32.7" style="fill:white;fill-rule:nonzero;"/>
        <rect x="287.7" y="483.7" width="424.7" height="32.7" style="fill:white;fill-rule:nonzero;"/>
        <rect x="287.7" y="638.8" width="424.7" height="32.7" style="fill:white;fill-rule:nonzero;"/>
    </g>
</svg>
