<?xml version="1.0" encoding="UTF-8" standalone="no"?>
<!DOCTYPE svg PUBLIC "-//W3C//DTD SVG 1.1//EN" "http://www.w3.org/Graphics/SVG/1.1/DTD/svg11.dtd">
<svg width="100%" height="100%" viewBox="0 0 512 294" version="1.1" xmlns="http://www.w3.org/2000/svg" xmlns:xlink="http://www.w3.org/1999/xlink" xml:space="preserve" style="fill-rule:evenodd;clip-rule:evenodd;stroke-linejoin:round;stroke-miterlimit:1.41421;">
    <g id="___x23_020201ff" transform="matrix(1,0,0,1,0,-109)">
        <path d="M307.875,126.404C316.798,119.67 327.134,114.456 338.353,113.142C336.804,119.85 330.438,123.361 324.892,126.413C333.266,123.937 341.432,120.282 350.255,119.678C352.614,119.597 355.973,119.696 356.81,122.433C358.071,125.846 354.622,128.493 352.002,129.915C342.368,134.885 331.24,135.614 321.443,140.206C341.575,138.315 361.672,146.122 376.942,159.006C395.166,174.006 407.213,195.723 411.606,218.818C427.713,223.14 445.127,220.007 460.244,213.587C452.645,230.802 433.287,238.662 415.603,240.193C430.297,245.739 446.468,246.684 461.999,245.036C449.683,258.678 430.63,263.99 412.723,263.575C405.276,294.008 387.566,321.307 364.589,342.348C319.876,382.829 257.948,402.231 198.11,398.378C140.587,394.867 83.98,366.514 50,319.469C52.971,321.207 55.465,323.602 58.301,325.53C84.61,344.564 119.634,350.613 150.913,342.114C169.893,337.217 187.125,326.6 200.892,312.735C192.087,313.33 182.309,311.762 175.925,305.127C171.946,301.337 170.307,295.098 172.702,290.02C175.592,283.609 182.03,279.963 188.117,277.09C168.156,279.944 146.403,270.644 137.201,252.186C143.944,244.145 154.722,241.562 164.735,240.779C153.084,237.384 141.118,233.225 132.285,224.527C125.262,217.945 120.697,208.816 119.328,199.308C127.576,197.768 135.859,195.895 144.313,196.247C125.145,186.27 107.623,167.273 109.154,144.305C145.502,157.567 181.265,172.684 215.415,190.944C227.364,197.508 237.295,207.007 247.064,216.38C256.526,191.809 266.682,167.139 282.07,145.584C290.317,134.248 300.05,123.696 312.008,116.223C311.539,119.939 309.631,123.181 307.875,126.404Z" style="fill:white;fill-rule:nonzero;stroke:white;stroke-width:1px;"/>
    </g>
</svg>
